<?xml version="1.0" standalone="no"?>
<!DOCTYPE svg PUBLIC "-//W3C//DTD SVG 20010904//EN"
 "http://www.w3.org/TR/2001/REC-SVG-20010904/DTD/svg10.dtd">
<svg version="1.0" xmlns="http://www.w3.org/2000/svg"
 width="567.000000pt" height="567.000000pt" viewBox="0 0 567.000000 567.000000"
 preserveAspectRatio="xMidYMid meet">
<metadata>
Created by potrace 1.11, written by Peter Selinger 2001-2013
</metadata>
<g transform="translate(0.000000,567.000000) scale(0.100000,-0.100000)"
fill="#000000" stroke="none">
<path d="M2506 5093 c-3 -3 -22 -7 -43 -10 -210 -26 -482 -115 -697 -228 -83
-43 -244 -141 -256 -155 -3 -3 -23 -19 -45 -35 -58 -42 -160 -131 -230 -200
-70 -68 -217 -241 -236 -277 -6 -12 -15 -25 -19 -28 -13 -9 -134 -212 -164
-274 -67 -140 -146 -350 -162 -431 -2 -11 -6 -29 -8 -40 -35 -158 -37 -171
-52 -325 -12 -112 -6 -397 9 -475 5 -22 19 -119 19 -122 -1 -2 4 -17 9 -35 5
-18 12 -46 15 -63 8 -44 9 -45 28 -110 79 -270 215 -531 395 -758 86 -108 327
-347 350 -347 3 0 22 -14 41 -31 82 -73 284 -193 440 -262 186 -82 435 -151
630 -174 82 -9 446 -9 521 0 97 13 233 40 319 63 396 109 740 315 1019 608 31
33 63 67 73 77 52 55 195 257 247 349 36 65 121 238 121 248 0 4 6 18 13 32 7
14 28 72 46 130 18 58 36 112 39 120 3 8 6 23 7 33 2 9 4 19 5 22 3 7 5 13 15
65 5 25 9 47 10 50 1 3 5 32 9 65 4 32 10 68 13 80 9 41 11 326 2 367 -15 67
-64 160 -111 209 -41 43 -138 116 -138 104 0 -3 -13 1 -29 10 -54 28 -177 38
-261 21 -113 -22 -249 -129 -302 -237 -37 -76 -44 -112 -54 -289 -9 -146 -11
-163 -28 -231 -45 -183 -136 -368 -254 -522 -48 -62 -209 -209 -284 -259 -126
-84 -297 -163 -394 -182 -10 -2 -39 -9 -64 -15 -25 -6 -56 -12 -70 -14 -14 -1
-29 -5 -35 -8 -17 -9 -277 -8 -345 2 -143 20 -335 82 -447 145 -49 27 -148 89
-166 104 -186 153 -300 291 -391 478 -33 65 -85 207 -92 247 -2 11 -8 43 -14
70 -57 264 -12 584 118 840 32 63 106 182 121 195 3 3 26 29 50 58 24 30 66
75 94 100 27 26 58 55 68 65 11 9 23 17 28 17 5 0 11 4 13 8 4 11 124 92 137
92 5 0 11 3 13 8 3 8 132 72 145 72 5 0 20 6 34 14 22 11 46 19 94 32 54 14
148 34 180 39 166 23 274 85 348 198 71 109 94 220 71 344 -28 156 -186 317
-339 348 -47 9 -172 15 -179 8z"/>
<path d="M3482 4927 c-42 -13 -99 -67 -118 -113 -13 -31 -15 -173 -12 -1027 2
-923 1 -995 -16 -1042 -33 -96 -72 -159 -136 -225 -222 -225 -585 -230 -807
-11 -63 62 -69 69 -99 121 -78 137 -89 303 -29 452 30 75 70 131 141 199 79
75 98 111 98 179 0 74 -27 126 -88 168 -40 26 -58 32 -103 32 -75 0 -110 -18
-203 -105 -123 -115 -234 -310 -264 -465 -3 -14 -8 -38 -11 -53 -22 -111 -5
-322 36 -442 27 -77 98 -212 141 -267 71 -91 252 -248 286 -248 5 0 15 -7 22
-15 7 -8 21 -15 30 -15 10 0 20 -4 22 -9 2 -4 45 -23 97 -40 182 -62 394 -71
562 -25 30 8 61 16 69 18 28 7 165 69 181 83 8 7 19 13 23 13 16 0 125 88 187
150 156 158 254 379 264 595 6 118 6 134 0 1048 -5 843 -6 891 -24 931 -43 98
-146 144 -249 113z"/>
</g>
</svg>
