<?xml version="1.0" encoding="UTF-8" standalone="no"?>
<svg
   xmlns:dc="http://purl.org/dc/elements/1.1/"
   xmlns:cc="http://creativecommons.org/ns#"
   xmlns:rdf="http://www.w3.org/1999/02/22-rdf-syntax-ns#"
   xmlns:svg="http://www.w3.org/2000/svg"
   xmlns="http://www.w3.org/2000/svg"
   xmlns:sodipodi="http://sodipodi.sourceforge.net/DTD/sodipodi-0.dtd"
   xmlns:inkscape="http://www.inkscape.org/namespaces/inkscape"
   viewBox="-262 394.3 70 52.5"
   id="svg2"
   version="1.1"
   inkscape:version="0.91 r13725"
   sodipodi:docname="about.BASE.svg">
  <metadata
     id="metadata14">
    <rdf:RDF>
      <cc:Work
         rdf:about="">
        <dc:format>image/svg+xml</dc:format>
        <dc:type
           rdf:resource="http://purl.org/dc/dcmitype/StillImage" />
        <dc:title></dc:title>
      </cc:Work>
    </rdf:RDF>
  </metadata>
  <defs
     id="defs12" />
  <sodipodi:namedview
     pagecolor="#ffffff"
     bordercolor="#666666"
     borderopacity="1"
     objecttolerance="10"
     gridtolerance="10"
     guidetolerance="10"
     inkscape:pageopacity="0"
     inkscape:pageshadow="2"
     inkscape:window-width="1890"
     inkscape:window-height="1050"
     id="namedview10"
     showgrid="false"
     inkscape:zoom="4.6308398"
     inkscape:cx="74.307244"
     inkscape:cy="6.6189107"
     inkscape:window-x="12"
     inkscape:window-y="12"
     inkscape:window-maximized="0"
     inkscape:current-layer="svg2" />
  <path
     stroke-miterlimit="10"
     d="M-220.6 419.5c0 8.5-6.9 15.4-15.4 15.4s-15.4-6.9-15.4-15.4 6.9-15.4 15.4-15.4 15.4 6.9 15.4 15.4zM-214.4 443.1c-1.8-2.6-3.9-4.5-6.7-6 0 0-4.8 5.9-14.9 6-10 .1-15.1-6-15.1-6-2.5 1.4-4.7 3.4-6.4 5.8"
     id="path4"
     style="stroke:#9eadad;stroke-opacity:1;stroke-width:2.5;stroke-miterlimit:10;stroke-dasharray:none"
     stroke-width="2"
     stroke="#444"
     fill="none" />
  <g
     fill="none"
     stroke="#00D3E6"
     id="g6"
     style="opacity:0.98;stroke:#ec2024;stroke-opacity:1;stroke-width:1;stroke-miterlimit:4;stroke-dasharray:none">
    <path
       d="M-212.2 406.6c-1.3 0-2.4 1.1-2.4 2.4v8c0 1.3 1.1 2.4 2.4 2.4h.6c1.3 0 2.4-1.1 2.4-2.4v-8c0-1.3-1.1-2.4-2.4-2.4h-.6zM-205.8 398.3c-1.3 0-2.4 1.1-2.4 2.4V417c0 1.3 1.1 2.4 2.4 2.4h.6c1.3 0 2.4-1.1 2.4-2.4v-16.2c0-1.3-1.1-2.4-2.4-2.4h-.6zM-199.5 402.9c-1.3 0-2.4 1.1-2.4 2.4V417c0 1.3 1.1 2.4 2.4 2.4h.6c1.3 0 2.4-1.1 2.4-2.4v-11.7c0-1.3-1.1-2.4-2.4-2.4h-.6z"
       id="path8"
       style="stroke:#ec2024;stroke-opacity:1;stroke-width:1;stroke-miterlimit:4;stroke-dasharray:none" />
  </g>
</svg>
