<?xml version="1.0" encoding="UTF-8" standalone="no"?>
<svg
   xmlns:dc="http://purl.org/dc/elements/1.1/"
   xmlns:cc="http://creativecommons.org/ns#"
   xmlns:rdf="http://www.w3.org/1999/02/22-rdf-syntax-ns#"
   xmlns:svg="http://www.w3.org/2000/svg"
   xmlns="http://www.w3.org/2000/svg"
   xmlns:sodipodi="http://sodipodi.sourceforge.net/DTD/sodipodi-0.dtd"
   xmlns:inkscape="http://www.inkscape.org/namespaces/inkscape"
   viewBox="-14 23.9 70 54.1"
   id="svg2"
   version="1.1"
   inkscape:version="0.91 r13725"
   sodipodi:docname="contact.svg">
  <metadata
     id="metadata12">
    <rdf:RDF>
      <cc:Work
         rdf:about="">
        <dc:format>image/svg+xml</dc:format>
        <dc:type
           rdf:resource="http://purl.org/dc/dcmitype/StillImage" />
      </cc:Work>
    </rdf:RDF>
  </metadata>
  <defs
     id="defs10" />
  <sodipodi:namedview
     pagecolor="#ffffff"
     bordercolor="#666666"
     borderopacity="1"
     objecttolerance="10"
     gridtolerance="10"
     guidetolerance="10"
     inkscape:pageopacity="0"
     inkscape:pageshadow="2"
     inkscape:window-width="1890"
     inkscape:window-height="1050"
     id="namedview8"
     showgrid="false"
     inkscape:zoom="3.4090815"
     inkscape:cx="-122.6717"
     inkscape:cy="-1.8359051"
     inkscape:window-x="12"
     inkscape:window-y="12"
     inkscape:window-maximized="0"
     inkscape:current-layer="svg2" />
  <path
     d="M.6 51h16.7c1.3 0 1.3-1.3 0-1.3H.6c-1.2 0-1.2 1.3 0 1.3zM.6 44.6h16.7c1.3 0 1.3-1.3 0-1.3H.6c-1.2 0-1.2 1.3 0 1.3zM1.6 38.2H10c1.3 0 1.3-1.3 0-1.3H1.6c-1.2.1-1.2 1.3 0 1.3z"
     id="path4"
     style="fill:#ec2024;fill-opacity:1"
     fill="#00D3E6" />
  <path
     fill="none"
     stroke="#444"
     stroke-width="2"
     stroke-miterlimit="10"
     d="M25.2 34.9c-3.7-6.6-11.3-10.5-19.2-9-10 1.7-16.6 11.3-14.9 21.3 1.1 6.4 5.4 11.4 11 13.7M46.2 44.1H27.3c0 4.5-1.7 8.6-4.4 11.8l1 5.2-4.9-1.7c-2.9 1.9-6.3 3-10 3h-.5V69c0 2.8 2.3 5.1 5.1 5.1h32.6c2.8 0 5.1-2.3 5.1-5.1V49.3c0-2.9-2.3-5.2-5.1-5.2z"
     id="path6"
     style="stroke:#9eadaf;stroke-opacity:0.94117647;stroke-width:2.5;stroke-miterlimit:10;stroke-dasharray:none" />
</svg>
