<?xml version="1.0" encoding="UTF-8" standalone="no"?>
<svg
   xmlns:dc="http://purl.org/dc/elements/1.1/"
   xmlns:cc="http://creativecommons.org/ns#"
   xmlns:rdf="http://www.w3.org/1999/02/22-rdf-syntax-ns#"
   xmlns:svg="http://www.w3.org/2000/svg"
   xmlns="http://www.w3.org/2000/svg"
   xmlns:sodipodi="http://sodipodi.sourceforge.net/DTD/sodipodi-0.dtd"
   xmlns:inkscape="http://www.inkscape.org/namespaces/inkscape"
   viewBox="-272 395.3 50.6 50.6"
   id="svg2"
   version="1.1"
   inkscape:version="0.91 r13725"
   sodipodi:docname="github.svg">
  <metadata
     id="metadata16">
    <rdf:RDF>
      <cc:Work
         rdf:about="">
        <dc:format>image/svg+xml</dc:format>
        <dc:type
           rdf:resource="http://purl.org/dc/dcmitype/StillImage" />
      </cc:Work>
    </rdf:RDF>
  </metadata>
  <defs
     id="defs14" />
  <sodipodi:namedview
     pagecolor="#ffffff"
     bordercolor="#666666"
     borderopacity="1"
     objecttolerance="10"
     gridtolerance="10"
     guidetolerance="10"
     inkscape:pageopacity="0"
     inkscape:pageshadow="2"
     inkscape:window-width="1890"
     inkscape:window-height="1050"
     id="namedview12"
     showgrid="false"
     inkscape:zoom="7.6936292"
     inkscape:cx="9.9456123"
     inkscape:cy="5.3447825"
     inkscape:window-x="12"
     inkscape:window-y="12"
     inkscape:window-maximized="0"
     inkscape:current-layer="svg2" />
  <path
     stroke-miterlimit="10"
     d="M-246.7 396.8c-6.6 0-12.2 2.3-16.8 7-4.7 4.6-7 10.3-7 16.8s2.3 12.2 7 16.8c4.7 4.7 10.3 7 16.8 7 6.6 0 12.2-2.3 16.8-7 4.7-4.7 7-10.3 7-16.8s-2.3-12.2-7-16.8c-4.6-4.7-10.2-7-16.8-7z"
     id="path6"
     style="fill:none;fill-opacity:1;stroke:#222222;stroke-opacity:1;stroke-width:2.25;stroke-miterlimit:10;stroke-dasharray:none"
     stroke-linejoin="round"
     stroke-linecap="round"
     stroke-width="1.75"
     stroke="#5A5A5A"
     fill="none" />
  <g
     id="g22"
     transform="matrix(1.5230614,0,0,-1.5230614,-246.69148,395.62399)"
     style="stroke:none;fill:none">
    <path
       d="m 0,0 c -8.995,0 -16.288,-7.293 -16.288,-16.29 0,-7.197 4.667,-13.302 11.14,-15.457 0.815,-0.149 1.112,0.354 1.112,0.786 0,0.386 -0.014,1.411 -0.022,2.77 -4.531,-0.984 -5.487,2.184 -5.487,2.184 -0.741,1.881 -1.809,2.382 -1.809,2.382 -1.479,1.011 0.112,0.991 0.112,0.991 1.635,-0.116 2.495,-1.679 2.495,-1.679 1.453,-2.489 3.813,-1.77 4.741,-1.354 0.148,1.053 0.568,1.771 1.034,2.178 -3.617,0.411 -7.42,1.809 -7.42,8.051 0,1.778 0.635,3.232 1.677,4.371 -0.168,0.412 -0.727,2.068 0.159,4.311 0,0 1.368,0.438 4.48,-1.67 1.299,0.361 2.693,0.542 4.078,0.548 1.383,-0.006 2.777,-0.187 4.078,-0.548 3.11,2.108 4.475,1.67 4.475,1.67 0.889,-2.243 0.33,-3.899 0.162,-4.311 1.044,-1.139 1.675,-2.593 1.675,-4.371 0,-6.258 -3.809,-7.635 -7.438,-8.038 0.585,-0.503 1.106,-1.497 1.106,-3.017 0,-2.177 -0.02,-3.934 -0.02,-4.468 0,-0.436 0.293,-0.943 1.12,-0.784 6.468,2.159 11.131,8.26 11.131,15.455 C 16.291,-7.293 8.997,0 0,0"
       style="fill:none;fill-opacity:1;fill-rule:evenodd;stroke:none"
       id="path24"
       inkscape:connector-curvature="0" />
  </g>
  <path
     style="opacity:1;fill:#222222;fill-opacity:1;stroke:none;stroke-width:0.71859199;stroke-linejoin:round;stroke-miterlimit:4;stroke-dasharray:none;stroke-opacity:1"
     d="m -250.32001,443.35613 c -0.75075,-0.12259 -1.60377,-0.28466 -1.8956,-0.36016 l -0.5306,-0.13728 -0.0442,-2.10047 -0.0442,-2.10047 -0.72329,0.10846 c -1.16919,0.17533 -3.07955,0.1101 -3.88626,-0.1327 -1.84921,-0.55658 -2.90457,-1.55786 -3.9602,-3.7573 -0.71286,-1.48526 -1.42922,-2.3723 -2.76189,-3.41991 -0.36544,-0.28727 -0.66444,-0.62357 -0.66444,-0.74733 0,-0.53693 1.46452,-0.48488 2.58373,0.0918 0.82162,0.42336 1.4208,0.97932 2.03546,1.88866 0.71128,1.05227 1.69553,2.0363 2.41034,2.40981 0.90508,0.47294 2.85354,0.55265 4.09147,0.16738 l 0.93213,-0.29009 0.27493,-1.00434 c 0.1512,-0.55238 0.49995,-1.32358 0.77499,-1.71378 0.27503,-0.3902 0.47826,-0.72684 0.4516,-0.74809 -0.0267,-0.0213 -0.61715,-0.12799 -1.3122,-0.2372 -3.49496,-0.54916 -6.17766,-1.9933 -7.72129,-4.15652 -1.4652,-2.05328 -2.04983,-4.17225 -2.05809,-7.45945 -0.005,-2.02139 0.0324,-2.3202 0.43538,-3.47528 0.24251,-0.69505 0.78813,-1.77641 1.21248,-2.40301 l 0.77155,-1.13928 -0.24487,-1.15125 c -0.28518,-1.34081 -0.21707,-2.92799 0.18754,-4.37001 l 0.27143,-0.96736 0.74035,0 c 1.32025,0 3.18251,0.71767 5.19212,2.00093 l 0.84019,0.53651 1.6083,-0.36041 c 2.27751,-0.51037 6.99955,-0.51233 9.33883,-0.004 l 1.5698,0.3412 0.87869,-0.52873 c 2.26761,-1.3645 4.08321,-2.0402 5.25446,-1.95552 l 0.67607,0.0489 0.2839,1.02678 c 0.34271,1.23947 0.39929,3.38707 0.12104,4.59402 l -0.20329,0.88178 0.58101,0.76118 c 1.35936,1.78085 1.85141,3.40001 1.84902,6.08445 -0.004,4.80482 -1.58312,8.07631 -4.83883,10.02647 -1.1497,0.68867 -3.33526,1.4078 -5.09573,1.67668 -0.71677,0.10947 -1.30323,0.24544 -1.30323,0.30214 0,0.0567 0.17197,0.26466 0.38216,0.46211 0.56874,0.53431 1.0567,1.81448 1.17321,3.07795 0.0568,0.61609 0.0816,2.62372 0.0551,4.46139 l -0.0482,3.34121 -1.37348,0.2672 c -1.88993,0.36768 -6.46132,0.45768 -8.26733,0.16278 z"
     id="path4234"
     inkscape:connector-curvature="0" />
</svg>
