<?xml version="1.0" encoding="UTF-8" standalone="no"?>
<svg
   xmlns:dc="http://purl.org/dc/elements/1.1/"
   xmlns:cc="http://creativecommons.org/ns#"
   xmlns:rdf="http://www.w3.org/1999/02/22-rdf-syntax-ns#"
   xmlns:svg="http://www.w3.org/2000/svg"
   xmlns="http://www.w3.org/2000/svg"
   xmlns:sodipodi="http://sodipodi.sourceforge.net/DTD/sodipodi-0.dtd"
   xmlns:inkscape="http://www.inkscape.org/namespaces/inkscape"
   viewBox="-272 395.3 50.6 50.6"
   id="svg2"
   version="1.1"
   inkscape:version="0.91 r13725"
   sodipodi:docname="icon_share1.svg">
  <metadata
     id="metadata14">
    <rdf:RDF>
      <cc:Work
         rdf:about="">
        <dc:format>image/svg+xml</dc:format>
        <dc:type
           rdf:resource="http://purl.org/dc/dcmitype/StillImage" />
        <dc:title />
      </cc:Work>
    </rdf:RDF>
  </metadata>
  <defs
     id="defs12" />
  <sodipodi:namedview
     pagecolor="#ffffff"
     bordercolor="#666666"
     borderopacity="1"
     objecttolerance="10"
     gridtolerance="10"
     guidetolerance="10"
     inkscape:pageopacity="0"
     inkscape:pageshadow="2"
     inkscape:window-width="824"
     inkscape:window-height="1050"
     id="namedview10"
     showgrid="false"
     inkscape:zoom="6.7004138"
     inkscape:cx="25.161866"
     inkscape:cy="26.530951"
     inkscape:window-x="12"
     inkscape:window-y="12"
     inkscape:window-maximized="0"
     inkscape:current-layer="svg2"
     showguides="false" />
  <path
     stroke-miterlimit="10"
     d="m -248.30553,422.88232 c 0.49675,0.85628 1.26384,1.474 2.32695,1.7565 1.06311,0.28249 1.939,0.10136 2.89193,-0.36971 0.8563,-0.49675 1.47402,-1.26384 1.75652,-2.32695 0.28249,-1.0631 0.10136,-1.93899 -0.36971,-2.89193 l -0.14193,-0.24466 c -0.52243,-0.75965 -1.21855,-1.25503 -2.18502,-1.51185 -0.96646,-0.25682 -1.81667,-0.17233 -2.67296,0.32442 l -0.24466,0.14193 c -0.85629,0.49676 -1.47401,1.26385 -1.75651,2.32695 -0.25681,0.96646 -0.10136,1.939 0.39539,2.7953 z m -3.96395,-17.40165 c 0.49675,0.8563 1.26384,1.47402 2.32695,1.75651 0.77317,0.20545 1.5977,0.21762 2.40263,-0.0858 0.12232,-0.071 0.3413,-0.11625 0.4893,-0.28385 0.8563,-0.49676 1.47402,-1.26384 1.75652,-2.32695 0.28249,-1.06311 0.10136,-1.93901 -0.36971,-2.89195 -0.49675,-0.85628 -1.26384,-1.474 -2.32695,-1.7565 -1.06311,-0.28249 -1.939,-0.10136 -2.89193,0.36971 -0.8563,0.49675 -1.47402,1.26384 -1.75652,2.32695 -0.28249,1.0631 -0.22149,1.81886 0.24958,2.7718 z m 3.63471,1.89708 1.93502,10.24039"
     id="path4"
     style="fill:none;stroke:#80adbf;stroke-width:1.75;stroke-miterlimit:10;stroke-opacity:0.94117647"
     inkscape:connector-curvature="0"
     sodipodi:nodetypes="sscsccsscsscsccscscscccc" />
  <path
     stroke-miterlimit="10"
     d="m -251.01829,434.97872 -0.21141,-0.18791 c -0.73403,-0.55784 -1.55615,-0.91016 -2.55442,-0.85142 -1.0981,0.0646 -1.87322,0.51092 -2.63072,1.2567 -0.65768,0.73991 -1.00412,1.66185 -0.9395,2.75995 0.0646,1.0981 0.51091,1.87323 1.2567,2.63073 0.73991,0.65767 1.66185,1.00411 2.75995,0.9395 1.0981,-0.0646 1.87322,-0.51092 2.63072,-1.2567 0.65767,-0.73991 1.00412,-1.66186 0.9395,-2.75996 -0.0646,-1.0981 -0.51091,-1.87322 -1.25082,-2.53089 z m -0.83974,-0.6518 4.52728,-9.883"
     id="path8"
     style="fill:none;stroke:#80adbf;stroke-width:1.75;stroke-miterlimit:10;stroke-opacity:0.94117647"
     inkscape:connector-curvature="0" />
  <path
     stroke-miterlimit="10"
     d="m -260.33816,422.55619 0.077,-0.27218 c 0.18215,-0.90377 0.14092,-1.79726 -0.34703,-2.67012 -0.53675,-0.96016 -1.27628,-1.46326 -2.27765,-1.81998 -0.95258,-0.26944 -1.93334,-0.17942 -2.89349,0.35734 -0.96016,0.53675 -1.46327,1.27627 -1.81999,2.27765 -0.26943,0.95258 -0.17941,1.93334 0.35734,2.89349 0.53675,0.96016 1.27628,1.46326 2.27765,1.81998 0.95257,0.26943 1.93335,0.17942 2.8935,-0.35734 0.96016,-0.53675 1.46326,-1.27627 1.73269,-2.22884 z m 0.22064,-1.03987 10.8681,-0.23281"
     id="path8-5"
     style="fill:none;stroke:#80adbf;stroke-width:1.75;stroke-miterlimit:10;stroke-opacity:0.94117647"
     inkscape:connector-curvature="0" />
  <path
     stroke-miterlimit="10"
     d="m -233.82132,429.66574 -0.23426,0.1585 c -0.7216,0.57383 -1.26575,1.2837 -1.45495,2.26563 -0.20815,1.08013 0.0333,1.94136 0.56925,2.85936 0.55491,0.81982 1.36297,1.38287 2.4431,1.591 1.08013,0.20815 1.94136,-0.0333 2.85937,-0.56926 0.81979,-0.55491 1.38286,-1.36296 1.59099,-2.44309 0.20816,-1.08013 -0.0333,-1.94137 -0.56925,-2.85936 -0.55492,-0.8198 -1.36298,-1.38287 -2.44311,-1.591 -1.08013,-0.20815 -1.94135,0.0333 -2.76116,0.58818 z m -0.83872,0.65311 -8.46162,-6.8243"
     id="path8-7"
     style="fill:none;stroke:#80adbf;stroke-width:1.75;stroke-miterlimit:10;stroke-opacity:0.94117647"
     inkscape:connector-curvature="0" />
  <path
     stroke-miterlimit="10"
     d="m -234.12078,407.9592 -0.17088,0.22541 c -0.49894,0.77527 -0.78611,1.62236 -0.64975,2.61301 0.15,1.08972 0.65537,1.8277 1.45792,2.52477 0.78892,0.59801 1.73506,0.87154 2.82478,0.72153 1.08973,-0.14999 1.82771,-0.65536 2.52479,-1.45792 0.598,-0.78892 0.87153,-1.73505 0.72153,-2.82477 -0.15,-1.08973 -0.65537,-1.82771 -1.45792,-2.52478 -0.78892,-0.59799 -1.73507,-0.87154 -2.82479,-0.72153 -1.08973,0.14999 -1.8277,0.65536 -2.4257,1.44427 z m -0.58437,0.88798 -10.20579,-3.74322"
     id="path8-5-9"
     style="fill:none;stroke:#80adbf;stroke-width:1.75;stroke-miterlimit:10;stroke-opacity:0.94117647"
     inkscape:connector-curvature="0" />
  <path
     stroke-miterlimit="10"
     d="m -231.70522,428.70633 0.58327,-14.14103"
     id="path8-5-9-3"
     style="fill:none;stroke:#80adbf;stroke-width:1.75;stroke-miterlimit:10;stroke-dasharray:none;stroke-opacity:0.94117647"
     inkscape:connector-curvature="0"
     sodipodi:nodetypes="cc" />
  <path
     stroke-miterlimit="10"
     d="m -262.04476,418.8397 9.82111,-12.2473"
     id="path8-5-9-3-4"
     style="fill:none;stroke:#80adbf;stroke-width:1.75;stroke-miterlimit:10;stroke-dasharray:none;stroke-opacity:0.94117647"
     inkscape:connector-curvature="0"
     sodipodi:nodetypes="cc" />
</svg>
