<?xml version="1.0" encoding="UTF-8" standalone="no"?>
<!-- Created with Inkscape (http://www.inkscape.org/) -->

<svg
   xmlns:dc="http://purl.org/dc/elements/1.1/"
   xmlns:cc="http://creativecommons.org/ns#"
   xmlns:rdf="http://www.w3.org/1999/02/22-rdf-syntax-ns#"
   xmlns:svg="http://www.w3.org/2000/svg"
   xmlns="http://www.w3.org/2000/svg"
   xmlns:sodipodi="http://sodipodi.sourceforge.net/DTD/sodipodi-0.dtd"
   xmlns:inkscape="http://www.inkscape.org/namespaces/inkscape"
   width="160mm"
   height="150mm"
   viewBox="0 0 744.09449 1052.3622"
   id="main_logo_svg"
   version="1.1"
   inkscape:version="0.91 r13725"
   sodipodi:docname="LOGO1.svg"
   inkscape:export-filename="/home/jonathan/Local/test/images/dessin_LOGO.PNG"
   inkscape:export-xdpi="9.3682079"
   inkscape:export-ydpi="9.3682079">
  <defs
     id="defs4138" />
  <sodipodi:namedview
     id="base"
     pagecolor="#ffffff"
     bordercolor="#666666"
     borderopacity="1.0"
     inkscape:pageopacity="0.0"
     inkscape:pageshadow="2"
     inkscape:zoom="0.7313004"
     inkscape:cx="624.44641"
     inkscape:cy="373.14025"
     inkscape:document-units="px"
     inkscape:current-layer="layer1"
     showgrid="false"
     inkscape:window-width="1920"
     inkscape:window-height="1080"
     inkscape:window-x="0"
     inkscape:window-y="0"
     inkscape:window-maximized="0"
     showguides="true"
     inkscape:guide-bbox="true">
    <inkscape:grid
       type="xygrid"
       id="grid4152" />
    <sodipodi:guide
       position="42.17658,992.30089"
       orientation="0,1"
       id="guide4466" />
  </sodipodi:namedview>
  <metadata
     id="metadata4141">
    <rdf:RDF>
      <cc:Work
         rdf:about="">
        <dc:format>image/svg+xml</dc:format>
        <dc:type
           rdf:resource="http://purl.org/dc/dcmitype/StillImage" />
        <dc:title></dc:title>
      </cc:Work>
    </rdf:RDF>
  </metadata>
  <g
     inkscape:label="Calque 1"
     inkscape:groupmode="layer"
     id="layer1"
     transform="matrix(1.6907004,0,0,1.6907004,-206.71557,-124.71395)">
    <flowRoot
       xml:space="preserve"
       id="flowRoot4383"
       style="fill:black;stroke:none;stroke-opacity:1;stroke-width:1px;stroke-linejoin:miter;stroke-linecap:butt;fill-opacity:1;font-family:sans-serif;font-style:normal;font-weight:normal;font-size:40px;line-height:125%;letter-spacing:0px;word-spacing:0px"><flowRegion
         id="flowRegion4385"><rect
           id="rect4387"
           width="1140"
           height="700"
           x="-200"
           y="51.496063" /></flowRegion><flowPara
         id="flowPara4389"></flowPara></flowRoot>    <path
       style="opacity:1;fill:none;fill-opacity:1;stroke:#9eadad;stroke-width:46.99930191;stroke-linecap:round;stroke-linejoin:round;stroke-miterlimit:4;stroke-dasharray:none;stroke-opacity:1"
       id="path4403"
       sodipodi:type="arc"
       sodipodi:cx="372.31866"
       sodipodi:cy="347.90198"
       sodipodi:rx="252.5881"
       sodipodi:ry="252.05904"
       sodipodi:start="6.1609555"
       sodipodi:end="4.6534227"
       d="M 623.02227,317.16951 A 252.5881,252.05904 0 0 1 493.21919,569.21169 252.5881,252.05904 0 0 1 210.6037,541.52911 252.5881,252.05904 0 0 1 132.3881,269.11121 252.5881,252.05904 0 0 1 357.43311,96.281022"
       transform="matrix(0.99409894,0.10847721,-0.10893863,0.99404848,0,0)"
       sodipodi:open="true" />
    <path
       style="opacity:1;fill:#9eadad;fill-opacity:1;stroke:none;stroke-width:2.48592234;stroke-linecap:round;stroke-linejoin:round;stroke-miterlimit:4;stroke-dasharray:none;stroke-opacity:1"
       d="m 560.77839,120.68671 c 2.19268,-5.53759 7.82317,-9.8256 14.25868,-10.85873 3.0824,-0.49486 15.65688,-0.34646 18.0176,0.21271 6.5381,1.5484 12.01045,6.45345 13.53655,12.13323 0.41901,1.55923 0.48331,9.16761 1.30244,154.11193 0.62049,109.80339 0.63152,106.54072 -0.36925,109.1505 -2.27803,5.94058 -8.31828,10.28286 -15.52974,11.16413 -3.66954,0.44845 -13.04178,0.31724 -15.89242,-0.22251 -7.03182,-1.33129 -12.67892,-6.16918 -14.33608,-12.28173 -0.55835,-2.05946 -0.5387,-0.5432 -0.9627,-74.41101 -1.16955,-203.74898 -1.16724,-186.11375 -0.0267,-188.99846 z"
       id="path4435"
       inkscape:connector-curvature="0" />
    <path
       style="opacity:1;fill:none;fill-opacity:1;stroke:#9eadad;stroke-width:47.05996704;stroke-linecap:round;stroke-linejoin:round;stroke-miterlimit:4;stroke-dasharray:none;stroke-opacity:1"
       id="path4403-4"
       sodipodi:type="arc"
       sodipodi:cx="375.73648"
       sodipodi:cy="349.84744"
       sodipodi:rx="174.88603"
       sodipodi:ry="169.00311"
       sodipodi:start="6.1609555"
       sodipodi:end="4.6646397"
       d="M 549.31773,329.24162 A 174.88603,169.00311 0 0 1 459.01422,498.4597 174.88603,169.00311 0 0 1 263.01716,479.06365 174.88603,169.00311 0 0 1 210.08,295.67036 174.88603,169.00311 0 0 1 367.38897,181.03696"
       transform="matrix(0.9944716,0.10500589,-0.11253675,0.99364756,0,0)"
       sodipodi:open="true" />
    <path
       style="opacity:1;fill:#9eadad;fill-opacity:1;stroke:none;stroke-width:2.48592234;stroke-linecap:round;stroke-linejoin:round;stroke-miterlimit:4;stroke-dasharray:none;stroke-opacity:1"
       d="m 485.29327,121.36715 c 2.20163,-5.59444 7.85515,-9.92649 14.31695,-10.97024 3.095,-0.49993 15.72084,-0.35 18.0912,0.21471 6.56485,1.56431 12.05952,6.51974 13.59189,12.25783 0.42069,1.57522 0.48529,9.26173 1.30776,155.6943 0.623,110.93078 0.6341,107.63464 -0.37077,110.27118 -2.28732,6.0016 -8.35227,10.38848 -15.59321,11.2788 -3.68454,0.45305 -13.09506,0.32049 -15.95732,-0.22485 -7.06058,-1.34498 -12.73078,-6.23252 -14.39469,-12.40784 -0.5606,-2.08058 -0.54089,-0.5488 -0.96665,-75.17501 -1.17431,-205.84102 -1.172,-188.02472 -0.0265,-190.93905 z"
       id="path4435-4"
       inkscape:connector-curvature="0" />
    <path
       style="opacity:1;fill:none;fill-opacity:1;stroke:#9eadad;stroke-width:47.05407715;stroke-linecap:round;stroke-linejoin:round;stroke-miterlimit:4;stroke-dasharray:none;stroke-opacity:1"
       id="path4403-3"
       sodipodi:type="arc"
       sodipodi:cx="374.02029"
       sodipodi:cy="347.47565"
       sodipodi:rx="92.7369"
       sodipodi:ry="92.542633"
       sodipodi:start="6.1609555"
       sodipodi:end="4.730222"
       d="M 466.06531,336.19232 A 92.7369,92.542633 0 0 1 416.83712,429.5642 92.7369,92.542633 0 0 1 311.95607,416.23823 92.7369,92.542633 0 0 1 287.74545,313.53536 92.7369,92.542633 0 0 1 375.67399,254.94773"
       transform="matrix(0.99409894,0.10847721,-0.10893863,0.99404848,0,0)"
       sodipodi:open="true" />
    <path
       style="opacity:1;fill:#9eadad;fill-opacity:1;stroke:none;stroke-width:2.48592234;stroke-linecap:round;stroke-linejoin:round;stroke-miterlimit:4;stroke-dasharray:none;stroke-opacity:1"
       d="m 402.52239,120.43974 c 2.20161,-5.59445 7.85516,-9.92648 14.31693,-10.97022 3.095,-0.49994 15.72084,-0.35003 18.09122,0.21472 6.56484,1.5643 12.05953,6.5197 13.5919,12.2578 0.42069,1.57524 0.48526,9.26173 1.30775,155.6943 0.62301,110.93079 0.63408,107.63463 -0.37079,110.27123 -2.28729,6.00155 -8.35226,10.38843 -15.59319,11.27874 -3.68453,0.45306 -13.09505,0.32052 -15.95734,-0.22484 -7.06056,-1.34499 -12.73075,-6.2325 -14.39466,-12.40782 -0.56062,-2.0806 -0.54089,-0.54882 -0.96665,-75.17503 -1.17435,-205.84101 -1.172,-188.02472 -0.0267,-190.93904 z"
       id="path4435-4-7"
       inkscape:connector-curvature="0" />
  </g>
</svg>
