<?xml version="1.0" encoding="UTF-8" standalone="no"?>
<svg
   xmlns:dc="http://purl.org/dc/elements/1.1/"
   xmlns:cc="http://creativecommons.org/ns#"
   xmlns:rdf="http://www.w3.org/1999/02/22-rdf-syntax-ns#"
   xmlns:svg="http://www.w3.org/2000/svg"
   xmlns="http://www.w3.org/2000/svg"
   xmlns:sodipodi="http://sodipodi.sourceforge.net/DTD/sodipodi-0.dtd"
   xmlns:inkscape="http://www.inkscape.org/namespaces/inkscape"
   viewBox="-14 24.5 70 52.5"
   id="svg2"
   version="1.1"
   inkscape:version="0.91 r13725"
   sodipodi:docname="portfolio.svg">
  <metadata
     id="metadata16">
    <rdf:RDF>
      <cc:Work
         rdf:about="">
        <dc:format>image/svg+xml</dc:format>
        <dc:type
           rdf:resource="http://purl.org/dc/dcmitype/StillImage" />
      </cc:Work>
    </rdf:RDF>
  </metadata>
  <defs
     id="defs14" />
  <sodipodi:namedview
     pagecolor="#ffffff"
     bordercolor="#666666"
     borderopacity="1"
     objecttolerance="10"
     gridtolerance="10"
     guidetolerance="10"
     inkscape:pageopacity="0"
     inkscape:pageshadow="2"
     inkscape:window-width="1890"
     inkscape:window-height="1050"
     id="namedview12"
     showgrid="false"
     inkscape:zoom="7.1229438"
     inkscape:cx="-12.488773"
     inkscape:cy="7.3915859"
     inkscape:window-x="12"
     inkscape:window-y="12"
     inkscape:window-maximized="0"
     inkscape:current-layer="svg2" />
  <path
     fill="none"
     stroke="#00D3E6"
     stroke-miterlimit="10"
     d="M52.1 73.3c0 .2-.2.4-.4.4H48c-.2 0-.4-.2-.4-.4v-5.9c0-.2.2-.4.4-.4h3.7c.2 0 .4.2.4.4v5.9z"
     id="path4"
     style="stroke:#ec2024;stroke-opacity:1" />
  <path
     fill="#222"
     stroke="#444"
     stroke-miterlimit="10"
     d="M10.7 74.8v-.9l1.1-8.8H-4.6c-2.3 0-3.3-2-3.3-4V33.9c0-2.2 1-3.2 3.3-3.2h43.5c2.2 0 3.3 1.1 3.3 3.2v9.5H31.9c-1.8 0-3.3 1.5-3.3 3.3V65h-6.1l1.2 8.8v.9l-13 .1zM-4.6 31.7c-1.7 0-2.3.6-2.3 2.2v27.3c0 1.4.6 3 2.3 3h17.5l-.4 2.6-.9 7.1h11l-1.3-9.7h6.2V46.7c0-2.3 1.9-4.2 4.2-4.2h9.4v-8.6c0-1.6-.7-2.2-2.3-2.2H-4.6z"
     id="path6"
     style="stroke:#93a1a1;stroke-opacity:1;fill:#9eadad;fill-opacity:1" />
  <path
     fill="#00D3E6"
     stroke="#00D3E6"
     stroke-width=".25"
     stroke-miterlimit="10"
     d="M43.5 74.6h-7.8c-1.1 0-2-.9-2-2.1V50.7c0-1.2.9-2.1 2-2.1h14.7c1.1 0 1.9.9 1.9 2.1l.1 11.5h-8.6c-.2 0-.3.1-.3.3v12.1zm-7.8-25.1c-.6 0-1 .5-1 1.1v21.9c0 .6.5 1.1 1 1.1h6.9V62.5c0-.7.5-1.2 1.2-1.2h7.6l-.1-10.6c0-.7-.5-1.1-.9-1.1l-14.7-.1z"
     id="path8"
     style="fill:#ec2024;fill-opacity:1;stroke:#ec2024;stroke-opacity:1" />
  <path
     fill="none"
     stroke="#444"
     stroke-width="2"
     stroke-linejoin="bevel"
     stroke-miterlimit="10"
     d="M28.1 58.3H-7.7"
     id="path10"
     style="stroke:#9eadad;stroke-opacity:1" />
</svg>
