<?xml version="1.0" encoding="UTF-8" standalone="no"?>
<svg
   xmlns:dc="http://purl.org/dc/elements/1.1/"
   xmlns:cc="http://creativecommons.org/ns#"
   xmlns:rdf="http://www.w3.org/1999/02/22-rdf-syntax-ns#"
   xmlns:svg="http://www.w3.org/2000/svg"
   xmlns="http://www.w3.org/2000/svg"
   width="374.2"
   height="339.6"
   viewBox="0 0 374.2 339.6"
   id="svg2"
   version="1.1">
  <metadata
     id="metadata10">
    <rdf:RDF>
      <cc:Work
         rdf:about="">
        <dc:format>image/svg+xml</dc:format>
        <dc:type
           rdf:resource="http://purl.org/dc/dcmitype/StillImage" />
        <dc:title></dc:title>
      </cc:Work>
    </rdf:RDF>
  </metadata>
  <defs
     id="defs8" />
  <path
     style="fill:#9eadad;fill-opacity:1;fill-rule:evenodd;stroke:none;stroke-width:1px;stroke-linecap:butt;stroke-linejoin:miter;stroke-opacity:1"
     d="m 130.63066,152.6806 c 4.32926,3.1522 0.56054,8.64064 -3.18188,7.15839 -24.13226,-15.52985 -36.190636,-51.17157 -43.181818,-80.300568 3.369078,0.759222 6.858838,2.307817 13.837618,0.08868 3.72702,35.061788 20.78763,64.506628 32.52608,73.053498 z"
     id="path4137" />
  <ellipse
     style="opacity:1;fill:#9eadad;fill-opacity:1;stroke:none;stroke-width:2.33599997;stroke-linecap:square;stroke-linejoin:miter;stroke-miterlimit:4;stroke-dasharray:none;stroke-opacity:1"
     id="path4159"
     cx="-93.91111"
     cy="-71.308304"
     rx="10.487838"
     ry="8.2043066"
     transform="matrix(-0.99939903,-0.03466367,0.03466367,-0.99939903,0,0)" />
  <path
     style="fill:#586e75;fill-opacity:1;fill-rule:evenodd;stroke:none;stroke-width:1px;stroke-linecap:butt;stroke-linejoin:miter;stroke-opacity:1"
     d="m 89.055601,74.860084 c -0.580341,-2.308781 1.626646,-3.811746 4.602384,-4.617659 -4.831388,3.011444 -3.272748,5.766 -3.067388,8.411712 z"
     id="path4167" />
  <path
     style="fill:#9eadad;fill-opacity:1;fill-rule:evenodd;stroke:none;stroke-width:1px;stroke-linecap:butt;stroke-linejoin:miter;stroke-opacity:1"
     d="m 100.18832,71.654103 c 4.41064,-1.293311 8.14379,-8.242105 7.55306,-11.376125 -4.2728,-3.850617 -6.87951,-3.229895 -7.61068,0.36396 -1.16791,5.740517 -0.66146,4.74387 -5.200039,8.90192 z"
     id="path4135-0" />
  <path
     style="fill:#9eadad;fill-opacity:1;fill-rule:evenodd;stroke:none;stroke-width:1.63284492px;stroke-linecap:butt;stroke-linejoin:miter;stroke-opacity:1"
     d="M 90.921738,66.499004 C 88.785269,61.712819 87.282645,61.610399 89.197701,51.597333 89.62909,49.341771 83.184376,50.923085 81.634759,52.61399 79.82586,57.076756 81.439906,66.171544 85.062032,69.734049 Z"
     id="path4146-7" />
  <path
     style="fill:#9eadad;fill-opacity:1;fill-rule:evenodd;stroke:none;stroke-width:1.63284492px;stroke-linecap:butt;stroke-linejoin:miter;stroke-opacity:1"
     d="m 78.178065,59.643657 c -2.302455,-0.06213 -6.218499,1.014639 -5.735532,4.236857 1.823852,4.059827 5.088889,8.994118 11.029131,9.53978 l 1.859815,-4.669845 c -2.58512,-1.246775 -5.745728,-3.74954 -7.153414,-9.106792 z"
     id="path4148-8" />
</svg>
