<?xml version="1.0" encoding="UTF-8" standalone="no"?>
<svg
   xmlns:dc="http://purl.org/dc/elements/1.1/"
   xmlns:cc="http://creativecommons.org/ns#"
   xmlns:rdf="http://www.w3.org/1999/02/22-rdf-syntax-ns#"
   xmlns:svg="http://www.w3.org/2000/svg"
   xmlns="http://www.w3.org/2000/svg"
   xmlns:sodipodi="http://sodipodi.sourceforge.net/DTD/sodipodi-0.dtd"
   xmlns:inkscape="http://www.inkscape.org/namespaces/inkscape"
   viewBox="-262 394.4 70 52.5"
   id="svg2"
   version="1.1"
   inkscape:version="0.91 r13725"
   sodipodi:docname="what.svg">
  <metadata
     id="metadata12">
    <rdf:RDF>
      <cc:Work
         rdf:about="">
        <dc:format>image/svg+xml</dc:format>
        <dc:type
           rdf:resource="http://purl.org/dc/dcmitype/StillImage" />
      </cc:Work>
    </rdf:RDF>
  </metadata>
  <defs
     id="defs10" />
  <sodipodi:namedview
     pagecolor="#ffffff"
     bordercolor="#666666"
     borderopacity="1"
     objecttolerance="10"
     gridtolerance="10"
     guidetolerance="10"
     inkscape:pageopacity="0"
     inkscape:pageshadow="2"
     inkscape:window-width="1890"
     inkscape:window-height="1050"
     id="namedview8"
     showgrid="false"
     inkscape:zoom="3.014592"
     inkscape:cx="-89.908213"
     inkscape:cy="-36.080315"
     inkscape:window-x="12"
     inkscape:window-y="12"
     inkscape:window-maximized="0"
     inkscape:current-layer="svg2" />
  <path
     fill="none"
     stroke="#444"
     stroke-width="1.9"
     stroke-miterlimit="10"
     d="M-240.7 443.2c1.4.2 2.8.3 4.3.3 6.2 0 11.7-2.1 14.9-5.2 1.1.9 2.4 1.5 4 1.5 3.4 0 7.7-2.9 8.6-6.2 1.7-6.2 3-10.8 2.7-16.9-.2-4.4-1.7-8.9-4.3-12.6.2-.6.2-1.2.1-1.9l-.2-1.6c-.4-2.6-2.8-4.5-5.4-4.1l-5.7.8c-2.6.4-4.4 2.8-4.1 5.4l.2 1.6c.2 1.3.9 2.4 1.8 3.1.3 1.6 1.8 2.6 3.4 2.4.8-.1 1.5-.6 2-1.2-.4 3.1-1.2 5.1-1.3 9.1-.1 3.2.1 6 1 8.5-3.5-3.1-11.1-6.2-17.7-6.2-4.6 0-8.7 1.1-11.9 3"
     id="path4"
     style="stroke:#9eadad;stroke-opacity:1" />
  <path
     fill="none"
     stroke="#00D3E6"
     stroke-miterlimit="10"
     d="M-245 429.3c5.4-4.3 13.6-4.9 19.8 1.6"
     id="path6"
     style="opacity:0.96;stroke:#ec2024;stroke-opacity:1" />
</svg>
